<?xml version="1.0" standalone="no"?>
<!DOCTYPE svg PUBLIC "-//W3C//DTD SVG 20010904//EN"
 "http://www.w3.org/TR/2001/REC-SVG-20010904/DTD/svg10.dtd">
<svg version="1.0" xmlns="http://www.w3.org/2000/svg"
 width="1080.000000pt" height="1080.000000pt" viewBox="0 0 1080.000000 1080.000000"
 preserveAspectRatio="xMidYMid meet">
<metadata>
Created by potrace 1.14, written by Peter Selinger 2001-2017
</metadata>
<g transform="translate(0.000000,1080.000000) scale(0.100000,-0.100000)"
fill="#000000" stroke="none">
<path d="M6042 8845 c5 -7 -29 -12 -100 -13 -100 -2 -175 -6 -297 -17 -101 -9
-115 -11 -220 -31 -16 -3 -43 -7 -60 -10 -16 -2 -50 -9 -75 -15 -25 -5 -54
-11 -65 -13 -17 -4 -71 -17 -125 -30 -8 -2 -37 -10 -65 -16 -27 -7 -54 -17
-60 -21 -5 -5 -20 -9 -32 -9 -13 0 -36 -6 -52 -14 -15 -8 -41 -16 -57 -18 -16
-2 -35 -9 -42 -16 -8 -7 -18 -10 -23 -7 -5 4 -9 1 -9 -4 0 -6 -7 -11 -16 -11
-8 0 -36 -10 -62 -22 -26 -11 -53 -21 -59 -21 -7 0 -13 -4 -13 -9 0 -4 -5 -8
-11 -8 -6 0 -40 -14 -75 -30 -35 -17 -67 -30 -70 -30 -4 1 -10 -2 -13 -7 -3
-4 -33 -22 -66 -39 -111 -58 -130 -69 -133 -77 -2 -4 -8 -5 -13 -1 -5 3 -9 0
-9 -5 0 -6 -7 -11 -15 -11 -8 0 -15 -3 -15 -8 0 -4 -14 -13 -32 -21 -17 -8
-39 -20 -47 -27 -38 -31 -88 -65 -113 -76 -16 -7 -28 -15 -28 -19 0 -3 -19
-19 -42 -35 -46 -31 -81 -59 -110 -86 -10 -10 -20 -18 -23 -18 -2 0 -27 -22
-55 -49 -27 -27 -50 -46 -50 -44 0 2 -27 -23 -59 -56 -33 -34 -65 -61 -72 -61
-7 0 -10 -3 -6 -6 5 -6 -61 -83 -105 -122 -9 -9 -15 -19 -12 -24 3 -4 -1 -8
-8 -8 -7 0 -21 -12 -30 -28 -15 -24 -102 -139 -128 -169 -5 -7 -10 -16 -10
-21 0 -4 -8 -17 -17 -28 -10 -10 -27 -36 -38 -56 -11 -21 -23 -38 -27 -38 -5
0 -8 -5 -8 -11 0 -6 -13 -31 -30 -56 -16 -24 -30 -47 -30 -52 0 -4 -13 -28
-29 -53 -16 -25 -27 -49 -24 -52 4 -3 1 -6 -5 -6 -7 0 -11 -3 -10 -7 1 -5 -13
-39 -31 -78 -31 -67 -68 -163 -76 -195 -2 -8 -4 -15 -5 -15 -1 0 -4 -11 -6
-25 -2 -13 -8 -27 -12 -30 -4 -3 -8 -16 -10 -30 -2 -14 -10 -47 -17 -75 -19
-69 -33 -146 -37 -207 -1 -21 -6 -38 -11 -38 -4 0 -5 -5 -1 -12 4 -6 9 -63 11
-127 4 -146 8 -197 18 -241 5 -19 9 -44 10 -55 0 -11 4 -29 8 -40 6 -19 10
-36 22 -102 3 -16 9 -37 14 -48 4 -11 18 -51 30 -90 25 -78 115 -271 139 -297
8 -10 12 -18 8 -18 -4 0 2 -13 13 -29 12 -16 21 -34 21 -40 0 -6 4 -11 9 -11
5 0 19 -19 30 -41 12 -23 28 -47 35 -55 8 -7 24 -30 37 -51 13 -21 28 -43 34
-49 5 -6 17 -21 25 -34 50 -73 183 -224 282 -320 131 -126 168 -160 175 -160
3 0 15 -10 27 -22 12 -13 39 -36 61 -53 22 -16 47 -35 55 -42 55 -44 126 -93
136 -93 7 0 14 -7 17 -14 3 -8 21 -23 39 -32 18 -9 35 -20 38 -23 3 -4 22 -17
43 -30 21 -13 43 -29 50 -36 7 -7 28 -20 47 -30 19 -10 39 -23 46 -29 6 -6 20
-17 30 -23 11 -7 55 -36 99 -65 44 -29 82 -55 85 -58 3 -3 38 -27 78 -54 39
-27 72 -49 72 -51 0 -3 -130 -44 -156 -50 -11 -2 -39 -11 -63 -19 -24 -9 -46
-14 -49 -11 -3 3 -10 0 -17 -5 -6 -5 -22 -12 -36 -14 -13 -3 -24 -5 -24 -6 0
-2 -28 -9 -50 -12 -11 -2 -24 -9 -28 -15 -4 -7 -12 -13 -17 -13 -16 0 -44 -33
-62 -71 -20 -42 -25 -92 -14 -139 10 -41 56 -109 74 -110 6 0 12 -4 12 -9 0
-20 154 -39 165 -21 3 5 26 12 50 16 25 3 45 10 45 15 0 5 3 8 8 7 11 -3 73
12 118 28 22 9 44 14 50 13 5 -1 25 5 44 13 19 9 62 24 95 34 33 10 63 23 67
29 4 5 8 7 8 2 0 -4 13 -1 29 8 17 8 38 16 48 18 10 2 37 13 60 25 23 12 47
22 54 22 21 0 87 60 103 94 9 19 18 49 20 67 2 18 9 35 16 37 6 2 24 18 38 34
15 17 44 49 65 72 20 22 37 47 37 53 0 7 5 13 12 13 6 0 8 3 5 7 -4 3 4 21 18
39 14 18 25 39 25 46 0 7 8 27 18 43 16 27 53 114 58 140 2 6 12 35 24 65 12
30 23 66 26 79 3 13 10 34 17 45 6 12 10 25 9 30 -2 4 4 29 12 55 9 25 17 57
20 71 6 36 18 64 30 72 8 6 8 8 0 8 -6 0 -10 15 -9 35 2 19 -1 37 -6 40 -4 3
-6 14 -4 24 2 11 -3 22 -12 25 -9 4 -13 9 -10 12 9 9 -34 47 -80 70 -45 23
-117 26 -165 6 -35 -14 -86 -65 -100 -99 -14 -34 -13 -29 -22 -80 -4 -24 -12
-45 -17 -49 -5 -3 -7 -9 -4 -14 3 -5 -7 -44 -21 -87 -14 -43 -27 -82 -29 -88
-1 -5 -5 -17 -8 -25 -28 -76 -41 -116 -39 -123 1 -4 -3 -7 -8 -7 -6 0 -10 -9
-10 -20 0 -11 -4 -20 -10 -20 -5 0 -9 -3 -8 -7 3 -10 -41 -93 -57 -110 -16
-16 -41 -17 -50 -3 -4 6 -11 8 -16 5 -5 -4 -9 -2 -9 3 0 9 -77 62 -91 62 -5 0
-9 5 -9 11 0 5 -4 7 -10 4 -5 -3 -10 -2 -10 3 0 4 -57 46 -127 92 -71 47 -130
87 -133 90 -3 3 -22 16 -43 29 -21 13 -43 28 -50 34 -6 7 -24 18 -39 26 -15 8
-37 22 -47 33 -11 10 -25 18 -31 18 -5 0 -10 5 -10 12 0 6 -3 9 -6 5 -3 -3
-18 5 -32 19 -15 13 -32 24 -39 24 -6 0 -19 10 -27 22 -9 12 -16 19 -16 15 0
-6 -146 97 -160 114 -3 3 -41 36 -85 74 -73 63 -219 207 -255 251 -8 11 -33
41 -55 69 -22 27 -44 55 -50 61 -5 6 -17 22 -25 34 -8 12 -21 29 -28 36 -7 8
-10 14 -6 14 4 0 -3 8 -14 19 -12 10 -22 22 -22 25 0 4 -13 27 -30 51 -17 24
-30 48 -30 53 0 6 -4 12 -9 14 -19 7 -115 210 -146 308 -40 128 -43 142 -50
185 -3 22 -10 61 -14 87 -4 25 -7 65 -7 87 1 23 -1 41 -4 41 -10 0 0 183 15
250 3 14 8 36 11 50 8 39 12 55 14 55 1 0 3 11 6 25 2 14 10 41 18 60 8 19 20
54 27 78 6 23 15 42 19 42 4 0 7 7 8 15 1 8 3 22 4 30 1 8 4 15 8 15 9 0 40
67 40 86 0 8 4 13 9 10 5 -4 12 7 16 24 4 16 11 30 16 30 5 0 9 5 9 10 0 6 11
27 24 48 12 20 24 42 26 47 2 6 17 29 34 52 17 22 40 56 51 74 40 66 58 90
108 142 15 16 27 31 27 35 0 7 28 37 169 179 61 61 111 109 111 107 0 -3 18
12 41 33 22 21 48 42 57 47 9 5 27 20 40 33 12 13 27 23 32 23 5 0 15 6 22 13
21 20 136 97 150 99 7 2 17 8 23 15 10 11 48 34 125 75 19 10 54 29 78 43 23
13 42 21 42 18 0 -2 7 3 16 11 13 14 28 18 50 15 4 0 10 4 13 9 3 5 40 24 81
41 41 18 90 39 108 47 18 8 37 12 42 9 6 -3 10 -1 10 4 0 6 9 11 20 11 11 0
20 5 20 12 0 6 3 9 6 5 3 -3 30 3 61 14 30 10 58 18 61 17 4 -1 19 4 33 10 15
6 40 12 55 15 16 2 36 7 45 11 9 4 20 6 25 5 5 -1 11 0 14 1 19 7 118 29 160
35 45 7 75 13 75 15 0 1 14 3 30 5 54 6 94 13 104 19 5 4 13 2 16 -4 4 -6 12
-7 18 -3 37 27 718 20 787 -7 3 -1 9 -2 14 -1 5 1 16 -1 25 -5 9 -4 30 -8 46
-9 17 -2 31 -4 33 -5 3 -3 10 -5 59 -14 24 -4 45 -12 49 -17 3 -5 9 -7 14 -4
5 3 28 -1 52 -10 24 -8 52 -15 63 -15 12 0 26 -5 32 -11 5 -5 21 -11 34 -13
23 -3 31 -6 74 -22 11 -4 25 -8 30 -10 17 -5 129 -44 150 -53 31 -13 127 -53
160 -66 127 -53 435 -201 445 -214 3 -4 20 -13 38 -20 17 -8 32 -17 32 -22 0
-5 5 -9 11 -9 6 0 38 -18 70 -40 32 -22 63 -40 69 -40 5 0 10 -3 10 -8 0 -4
18 -18 40 -32 22 -14 40 -28 40 -32 0 -4 11 -13 24 -20 46 -25 266 -230 266
-249 0 -5 3 -9 8 -9 4 0 25 -23 47 -51 22 -29 50 -63 62 -78 13 -14 27 -31 33
-38 5 -7 10 -16 10 -21 0 -5 9 -17 20 -27 11 -10 20 -24 20 -32 0 -7 5 -13 10
-13 6 0 10 -7 10 -15 0 -8 4 -15 8 -15 4 0 18 -19 30 -42 12 -24 35 -65 51
-93 16 -27 30 -58 30 -68 1 -11 5 -15 13 -11 7 5 9 2 5 -9 -3 -9 -2 -17 2 -19
7 -2 81 -151 81 -162 0 -2 8 -21 17 -42 9 -22 17 -41 18 -44 1 -3 7 -18 13
-33 7 -16 12 -34 12 -41 0 -6 4 -16 10 -22 5 -5 11 -22 12 -37 1 -15 5 -27 9
-27 7 0 24 -74 17 -76 -1 0 3 -8 11 -17 7 -10 11 -17 8 -17 -3 0 1 -16 9 -35
8 -19 12 -35 10 -35 -3 0 1 -18 9 -40 8 -22 12 -40 9 -40 -2 0 0 -9 6 -20 6
-10 12 -32 14 -47 2 -15 6 -39 9 -53 7 -27 16 -77 22 -125 3 -16 7 -46 10 -65
8 -50 15 -108 19 -165 2 -27 5 -50 6 -50 1 0 3 -34 5 -76 1 -42 5 -81 7 -85 9
-15 -3 -659 -12 -659 -1 0 -3 -22 -4 -50 -2 -27 -4 -50 -5 -50 -1 0 -4 -18 -6
-40 -8 -88 -20 -188 -30 -240 -2 -16 -6 -39 -8 -50 -1 -11 -6 -26 -11 -33 -4
-7 -6 -16 -3 -18 2 -3 1 -22 -4 -42 -6 -20 -12 -48 -15 -60 -2 -13 -12 -49
-20 -80 -9 -32 -16 -63 -17 -69 0 -7 -4 -13 -9 -13 -5 0 -6 -4 -3 -10 3 -5 3
-16 -2 -22 -4 -7 -9 -24 -11 -38 -2 -13 -6 -27 -10 -30 -4 -3 -9 -16 -10 -30
-2 -14 -9 -31 -14 -38 -6 -6 -8 -12 -4 -12 3 0 0 -15 -8 -34 -8 -19 -12 -37
-8 -40 3 -3 1 -6 -5 -6 -6 0 -16 -23 -23 -50 -7 -28 -16 -53 -21 -56 -5 -3 -9
-16 -9 -30 0 -13 -4 -24 -9 -24 -5 0 -13 -14 -16 -32 -4 -17 -16 -47 -26 -65
-10 -18 -16 -33 -12 -33 4 0 2 -5 -5 -12 -7 -7 -12 -20 -12 -29 0 -10 -5 -19
-11 -21 -5 -2 -11 -10 -12 -18 -2 -8 -16 -42 -32 -75 -15 -33 -29 -63 -29 -67
-1 -4 -9 -16 -18 -27 -9 -11 -14 -22 -11 -25 3 -3 1 -11 -4 -18 -10 -13 -64
-109 -91 -163 -9 -16 -18 -32 -22 -35 -4 -3 -17 -26 -30 -53 -13 -26 -28 -47
-32 -47 -5 0 -6 -4 -3 -10 3 -5 1 -10 -5 -10 -6 0 -8 -5 -5 -10 3 -6 -1 -13
-9 -16 -9 -3 -13 -10 -10 -15 3 -5 0 -9 -5 -9 -6 0 -11 -5 -11 -10 0 -12 -70
-126 -93 -152 -9 -9 -13 -19 -10 -22 4 -3 1 -6 -5 -6 -7 0 -12 -4 -12 -10 0
-5 -9 -20 -20 -32 -10 -13 -19 -27 -19 -31 0 -4 -6 -14 -13 -22 -16 -18 -37
-46 -87 -115 -22 -30 -49 -65 -60 -77 -12 -12 -21 -25 -21 -29 0 -4 -16 -25
-35 -48 -20 -22 -47 -54 -60 -71 -57 -69 -68 -80 -77 -77 -5 1 -7 -2 -4 -6 3
-5 -14 -30 -38 -56 -24 -25 -41 -46 -38 -46 4 0 -9 -15 -28 -33 -19 -18 -64
-66 -100 -106 -137 -154 -442 -471 -453 -471 -3 0 -26 -20 -50 -44 -25 -24
-48 -41 -51 -38 -3 3 -6 -2 -6 -10 0 -9 -6 -21 -14 -27 -13 -11 -28 -64 -30
-101 -1 -30 27 -112 41 -117 7 -3 13 -9 13 -15 0 -14 27 -38 34 -31 3 4 6 0 6
-7 0 -7 3 -10 7 -7 3 4 12 2 18 -3 7 -6 29 -13 49 -15 19 -3 39 -6 43 -7 12
-3 86 24 99 36 6 6 31 27 54 46 49 40 306 298 420 421 41 44 94 101 117 125
23 24 41 44 39 44 -2 0 13 17 33 38 63 67 156 174 165 191 5 9 23 28 40 43 17
15 27 28 23 28 -4 0 2 10 15 23 13 13 32 36 43 51 11 16 26 35 33 42 14 14 74
94 102 134 8 12 33 47 56 78 22 32 69 100 105 152 35 52 67 98 72 101 5 3 8
10 8 15 -1 5 6 17 14 27 8 9 13 17 10 17 -4 0 35 63 53 85 9 12 19 36 20 49 0
5 5 12 10 15 14 9 72 113 152 271 24 47 47 92 51 100 16 28 41 85 43 96 1 7 7
18 13 26 6 7 14 25 18 41 4 15 12 27 18 27 6 0 7 3 4 6 -3 4 -1 16 6 28 6 11
12 26 12 31 1 6 7 21 15 35 8 14 15 31 16 38 1 7 12 33 23 58 12 24 22 52 24
62 2 9 9 28 17 42 8 14 15 30 16 35 0 6 2 15 4 20 1 6 3 15 4 20 1 6 8 23 14
39 7 16 10 31 7 34 -3 3 3 14 12 25 10 10 17 20 15 21 -4 1 7 53 15 76 4 8 7
17 8 20 1 3 5 24 10 48 4 23 12 42 17 42 5 0 7 4 4 9 -3 5 -2 22 3 37 19 62
31 110 35 139 2 17 6 37 9 45 3 8 9 33 12 55 9 62 14 97 20 130 3 17 7 46 10
65 2 19 6 53 8 75 7 51 17 149 21 196 2 20 6 41 10 48 4 6 3 11 -2 11 -6 0 -7
14 -3 33 3 17 6 52 6 77 0 25 4 48 10 52 6 5 5 8 -3 8 -7 0 -10 5 -7 11 12 19
5 481 -9 639 -8 85 -17 165 -22 200 -2 19 -6 52 -7 73 -1 20 -5 37 -9 37 -4 0
-7 15 -7 33 0 17 -2 43 -6 57 -4 14 -8 36 -11 50 -5 28 -8 44 -17 80 -4 14 -9
36 -11 50 -3 14 -9 40 -15 58 -5 17 -8 32 -6 32 2 0 -3 16 -11 35 -8 19 -11
35 -8 35 4 0 1 7 -6 15 -7 8 -9 15 -5 15 4 0 1 8 -6 17 -12 15 -12 16 1 8 13
-7 13 -6 2 7 -7 9 -19 42 -28 74 -8 32 -19 64 -25 70 -6 7 -8 18 -4 24 3 5 1
10 -4 10 -6 0 -10 3 -9 8 0 4 -2 16 -7 27 -4 11 -23 61 -42 110 -19 50 -41
101 -48 115 -8 14 -30 60 -50 102 -20 43 -41 80 -46 84 -5 3 -9 13 -9 23 0 9
-8 26 -17 37 -10 10 -26 35 -36 54 -9 19 -28 53 -42 75 -14 22 -28 46 -32 54
-4 8 -15 23 -25 33 -10 10 -16 24 -12 31 4 7 4 9 -1 5 -4 -4 -29 23 -55 60
-27 37 -57 76 -69 86 -12 11 -21 25 -21 33 0 8 -4 11 -10 8 -5 -3 -10 -1 -10
4 0 6 -8 19 -17 29 -10 10 -46 49 -81 85 -34 37 -66 67 -70 67 -5 0 -15 11
-22 25 -7 14 -15 23 -18 21 -2 -3 -21 12 -41 32 -21 21 -54 48 -74 62 -20 14
-37 28 -37 32 0 4 -12 14 -27 22 -16 8 -41 26 -58 40 -16 14 -33 26 -37 26 -4
0 -13 6 -20 13 -7 7 -31 24 -53 37 -22 13 -42 27 -45 30 -3 4 -25 17 -50 31
-25 13 -47 26 -50 29 -16 16 -285 153 -396 201 -54 24 -101 46 -104 49 -3 3
-12 6 -20 7 -8 2 -52 19 -98 38 -46 19 -90 35 -98 35 -8 0 -14 5 -14 10 0 5
-3 9 -7 8 -5 -1 -24 4 -43 11 -19 8 -39 15 -45 15 -5 1 -17 5 -25 8 -33 14
-95 32 -102 30 -5 -1 -8 2 -8 7 0 5 -9 11 -20 14 -11 3 -18 2 -15 -3 2 -4 -19
1 -48 10 -96 34 -156 50 -180 50 -14 0 -30 6 -37 14 -6 8 -18 12 -26 9 -7 -3
-35 0 -61 6 -27 7 -62 13 -78 15 -17 2 -30 5 -30 6 0 1 -13 3 -30 5 -16 1 -50
5 -75 9 -60 9 -187 17 -285 18 -44 1 -86 6 -94 12 -9 7 -12 7 -9 1z"/>
</g>
</svg>
